<svg width="900" height="620" viewBox="0 0 900 620" fill="none" xmlns="http://www.w3.org/2000/svg">
<rect width="900" height="620" fill="#F8F2E8"/>
<rect x="116" y="410" width="650" height="42" rx="21" fill="#11141A" fill-opacity="0.1"/>
<path d="M195 333C225 253 306 208 432 208H530C633 208 710 254 750 332L790 345C810 351 824 368 824 389V423H123V381C123 361 136 345 155 339L195 333Z" fill="#2B313D"/>
<path d="M323 230H533C601 230 649 257 693 324H252C271 266 289 230 323 230Z" fill="#F0B74A"/>
<rect x="392" y="246" width="123" height="66" rx="12" fill="#F8F2E8" fill-opacity="0.92"/>
<rect x="526" y="246" width="122" height="66" rx="12" fill="#F8F2E8" fill-opacity="0.78"/>
<circle cx="277" cy="423" r="60" fill="#11141A"/><circle cx="277" cy="423" r="26" fill="#F8F2E8"/>
<circle cx="685" cy="423" r="60" fill="#11141A"/><circle cx="685" cy="423" r="26" fill="#F8F2E8"/>
<text x="80" y="98" fill="#11141A" font-size="44" font-family="Arial, Helvetica, sans-serif" font-weight="700">Mercedes-Benz 280 SL</text>
<text x="80" y="142" fill="#7A6E58" font-size="22" font-family="Arial, Helvetica, sans-serif">1969 / fully restored / classic roadster</text>
</svg>
